CommeMono-Regular.ufo
<glyph name="exclam" format="1">
  <advance width="1229"/>
  <unicode hex="0021"/>
  <outline>
    <contour>
      <point x="735" y="0" type="line"/>
      <point x="495" y="0" type="line"/>
      <point x="495" y="276" type="line"/>
      <point x="735" y="276" type="line"/>
    </contour>
    <contour>
      <point x="584" y="489" type="line"/>
      <point x="495" y="1492" type="line"/>
      <point x="735" y="1492" type="line"/>
      <point x="646" y="489" type="line"/>
    </contour>
  </outline>
</glyph>
<glyph name="numbersign" format="1">
  <advance width="1229"/>
  <unicode hex="0023"/>
  <outline>
    <contour>
      <point x="592" y="997" type="line"/>
      <point x="509" y="573" type="line"/>
      <point x="727" y="573" type="line"/>
      <point x="811" y="997" type="line"/>
    </contour>
    <contour>
      <point x="1155" y="997" type="line"/>
      <point x="971" y="997" type="line"/>
      <point x="886" y="573" type="line"/>
      <point x="1073" y="573" type="line"/>
      <point x="1058" y="437" type="line"/>
      <point x="863" y="437" type="line"/>
      <point x="772" y="-25" type="line"/>
      <point x="610" y="-25" type="line"/>
      <point x="698" y="437" type="line"/>
      <point x="483" y="437" type="line"/>
      <point x="393" y="-25" type="line"/>
      <point x="230" y="-25" type="line"/>
      <point x="324" y="437" type="line"/>
      <point x="108" y="437" type="line"/>
      <point x="121" y="573" type="line"/>
      <point x="350" y="573" type="line"/>
      <point x="430" y="996" type="line"/>
      <point x="205" y="996" type="line"/>
      <point x="219" y="1130" type="line"/>
      <point x="455" y="1130" type="line"/>
      <point x="541" y="1568" type="line"/>
      <point x="704" y="1568" type="line"/>
      <point x="619" y="1130" type="line"/>
      <point x="837" y="1130" type="line"/>
      <point x="921" y="1568" type="line"/>
      <point x="1083" y="1568" type="line"/>
      <point x="997" y="1130" type="line"/>
      <point x="1172" y="1130" type="line"/>
    </contour>
  </outline>
</glyph>
<glyph name="dollar" format="1">
  <advance width="1229"/>
  <unicode hex="0024"/>
  <outline>
    <contour>
      <point x="573" y="1752" type="line"/>
      <point x="666" y="1752" type="line"/>
      <point x="666" y="1515.25" type="line"/>
      <point x="803.755" y="1507.21"/>
      <point x="914.088" y="1471.46"/>
      <point x="997" y="1406" type="curve"/>
      <point x="927" y="1262" type="line"/>
      <point x="860.794" y="1313.59"/>
      <point x="770.192" y="1351.13"/>
      <point x="666" y="1360.64" type="curve"/>
      <point x="666" y="849.534" type="line"/>
      <point x="680.005" y="844.019"/>
      <point x="693.434" y="838.552"/>
      <point x="706" y="833" type="curve" smooth="yes"/>
      <point x="878" y="757"/>
      <point x="1054" y="658"/>
      <point x="1054" y="415" type="curve" smooth="yes"/>
      <point x="1054" y="149.692"/>
      <point x="903.136" y="4.09035"/>
      <point x="666" y="-21.0617" type="curve"/>
      <point x="666" y="-218" type="line"/>
      <point x="573" y="-218" type="line"/>
      <point x="573" y="-24.8922" type="line"/>
      <point x="399.144" y="-22.539"/>
      <point x="254.535" y="18.3101"/>
      <point x="141" y="94" type="curve"/>
      <point x="212" y="261" type="line"/>
      <point x="300.999" y="188.27"/>
      <point x="425.714" y="134.771"/>
      <point x="573" y="130.303" type="curve"/>
      <point x="573" y="687.001" type="line"/>
      <point x="546.489" y="697.588"/>
      <point x="520.398" y="707.665"/>
      <point x="496" y="718" type="curve" smooth="yes"/>
      <point x="324" y="790"/>
      <point x="150" y="879"/>
      <point x="150" y="1123" type="curve" smooth="yes"/>
      <point x="150" y="1369.56"/>
      <point x="331.327" y="1505.68"/>
      <point x="573" y="1516.32" type="curve"/>
    </contour>
    <contour>
      <point x="573" y="886.06" type="curve"/>
      <point x="573" y="1360.81" type="line"/>
      <point x="439.799" y="1346.12"/>
      <point x="357" y="1258.4"/>
      <point x="357" y="1121" type="curve" smooth="yes"/>
      <point x="357" y="993.185"/>
      <point x="464.321" y="931.226"/>
    </contour>
    <contour>
      <point x="666" y="646.383" type="curve"/>
      <point x="666" y="138.328" type="line"/>
      <point x="781.257" y="166.602"/>
      <point x="843" y="264.954"/>
      <point x="843" y="404" type="curve" smooth="yes"/>
      <point x="843" y="530.983"/>
      <point x="761.979" y="598.498"/>
    </contour>
  </outline>
</glyph>
<glyph name="percent" format="1">
  <advance width="1229"/>
  <unicode hex="0025"/>
  <outline>
    <contour>
      <point x="330" y="1457" type="curve" smooth="yes"/>
      <point x="216" y="1457"/>
      <point x="193" y="1345"/>
      <point x="193" y="1228" type="curve" smooth="yes"/>
      <point x="193" y="1110"/>
      <point x="214" y="1004"/>
      <point x="329" y="1004" type="curve" smooth="yes"/>
      <point x="440" y="1004"/>
      <point x="465" y="1118"/>
      <point x="465" y="1232" type="curve" smooth="yes"/>
      <point x="465" y="1349"/>
      <point x="442" y="1457"/>
    </contour>
    <contour>
      <point x="1125" y="1018" type="line"/>
      <point x="201" y="465" type="line"/>
      <point x="140" y="567" type="line"/>
      <point x="1064" y="1124" type="line"/>
    </contour>
    <contour>
      <point x="333" y="1571" type="curve" smooth="yes"/>
      <point x="522" y="1571"/>
      <point x="589" y="1425"/>
      <point x="589" y="1232" type="curve" smooth="yes"/>
      <point x="589" y="1023"/>
      <point x="494" y="890"/>
      <point x="325" y="890" type="curve" smooth="yes"/>
      <point x="136" y="890"/>
      <point x="66" y="1038"/>
      <point x="66" y="1228" type="curve" smooth="yes"/>
      <point x="66" y="1422"/>
      <point x="142" y="1571"/>
    </contour>
    <contour>
      <point x="907" y="662" type="curve" smooth="yes"/>
      <point x="1096" y="662"/>
      <point x="1163" y="516"/>
      <point x="1163" y="323" type="curve" smooth="yes"/>
      <point x="1163" y="114"/>
      <point x="1068" y="-19"/>
      <point x="899" y="-19" type="curve" smooth="yes"/>
      <point x="710" y="-19"/>
      <point x="640" y="129"/>
      <point x="640" y="319" type="curve" smooth="yes"/>
      <point x="640" y="513"/>
      <point x="716" y="662"/>
    </contour>
    <contour>
      <point x="904" y="548" type="curve" smooth="yes"/>
      <point x="790" y="548"/>
      <point x="767" y="436"/>
      <point x="767" y="319" type="curve" smooth="yes"/>
      <point x="767" y="201"/>
      <point x="788" y="95"/>
      <point x="903" y="95" type="curve" smooth="yes"/>
      <point x="1014" y="95"/>
      <point x="1039" y="209"/>
      <point x="1039" y="323" type="curve" smooth="yes"/>
      <point x="1039" y="440"/>
      <point x="1016" y="548"/>
    </contour>
  </outline>
</glyph>
<glyph name="quotesingle" format="1">
  <advance width="1229"/>
  <unicode hex="0027"/>
  <outline>
    <contour>
      <point x="558" y="969" type="line"/>
      <point x="496" y="1580" type="line"/>
      <point x="755" y="1580" type="line"/>
      <point x="700" y="969" type="line"/>
    </contour>
  </outline>
</glyph>
<glyph name="asterisk" format="1">
  <advance width="1229"/>
  <unicode hex="002A"/>
  <outline>
    <contour>
      <point x="1046" y="374" type="line"/>
      <point x="866" y="270" type="line"/>
      <point x="612" y="673" type="line"/>
      <point x="363" y="270" type="line"/>
      <point x="181" y="374" type="line"/>
      <point x="499" y="752" type="line"/>
      <point x="56" y="899" type="line"/>
      <point x="148" y="1079" type="line"/>
      <point x="550" y="866" type="line"/>
      <point x="515" y="1330" type="line"/>
      <point x="711" y="1330" type="line"/>
      <point x="681" y="866" type="line"/>
      <point x="1080" y="1079" type="line"/>
      <point x="1173" y="899" type="line"/>
      <point x="728" y="752" type="line"/>
    </contour>
  </outline>
</glyph>
<glyph name="plus" format="1">
  <advance width="1229"/>
  <unicode hex="002B"/>
  <outline>
    <contour>
      <point x="652" y="1286" type="line"/>
      <point x="814" y="1286" type="line"/>
      <point x="814" y="827" type="line"/>
      <point x="1311" y="827" type="line"/>
      <point x="1311" y="676" type="line"/>
      <point x="813" y="676" type="line"/>
      <point x="813" y="217" type="line"/>
      <point x="648" y="217" type="line"/>
      <point x="648" y="676" type="line"/>
      <point x="152" y="676" type="line"/>
      <point x="152" y="827" type="line"/>
      <point x="652" y="827" type="line"/>
    </contour>
  </outline>
</glyph>
<glyph name="comma" format="1">
  <advance width="1229"/>
  <unicode hex="002C"/>
  <outline>
    <contour>
      <point x="440" y="-321" type="line"/>
      <point x="491" y="286" type="line"/>
      <point x="748" y="286" type="line"/>
      <point x="562" y="-321" type="line"/>
    </contour>
  </outline>
</glyph>
<glyph name="three" format="1">
  <advance width="1229"/>
  <unicode hex="0033"/>
  <outline>
    <contour>
      <point x="577" y="157" type="curve" smooth="yes"/>
      <point x="768" y="157"/>
      <point x="895" y="250"/>
      <point x="895" y="432" type="curve" smooth="yes"/>
      <point x="895" y="640"/>
      <point x="695" y="704"/>
      <point x="483" y="705" type="curve"/>
      <point x="373" y="705" type="line"/>
      <point x="373" y="883" type="line"/>
      <point x="483" y="885" type="line" smooth="yes"/>
      <point x="681" y="888"/>
      <point x="844" y="931"/>
      <point x="844" y="1128" type="curve" smooth="yes"/>
      <point x="844" y="1269"/>
      <point x="747" y="1349"/>
      <point x="573" y="1349" type="curve" smooth="yes"/>
      <point x="426" y="1349"/>
      <point x="312" y="1292"/>
      <point x="232" y="1221" type="curve"/>
      <point x="163" y="1382" type="line"/>
      <point x="267" y="1470"/>
      <point x="410" y="1516"/>
      <point x="597" y="1516" type="curve" smooth="yes"/>
      <point x="867" y="1516"/>
      <point x="1065" y="1375"/>
      <point x="1065" y="1143" type="curve" smooth="yes"/>
      <point x="1065" y="938"/>
      <point x="907" y="843"/>
      <point x="739" y="803" type="curve"/>
      <point x="927" y="770"/>
      <point x="1120" y="652"/>
      <point x="1120" y="413" type="curve" smooth="yes"/>
      <point x="1120" y="111"/>
      <point x="871" y="-12"/>
      <point x="567" y="-12" type="curve" smooth="yes"/>
      <point x="399" y="-12"/>
      <point x="255" y="43"/>
      <point x="161" y="113" type="curve"/>
      <point x="231" y="273" type="line"/>
      <point x="293" y="219"/>
      <point x="432" y="157"/>
    </contour>
  </outline>
</glyph>
<glyph name="four" format="1">
  <advance width="1229"/>
  <unicode hex="0034"/>
  <outline>
    <contour>
      <point x="710" y="1282" type="line"/>
      <point x="250" y="538" type="line"/>
      <point x="710" y="538" type="line"/>
    </contour>
    <contour>
      <point x="897" y="0" type="line"/>
      <point x="710" y="0" type="line"/>
      <point x="710" y="398" type="line"/>
      <point x="61" y="398" type="line"/>
      <point x="61" y="541" type="line"/>
      <point x="667" y="1492" type="line"/>
      <point x="897" y="1492" type="line"/>
      <point x="897" y="538" type="line"/>
      <point x="1139" y="538" type="line"/>
      <point x="1139" y="398" type="line"/>
      <point x="897" y="398" type="line"/>
    </contour>
  </outline>
</glyph>
<glyph name="seven" format="1">
  <advance width="1229"/>
  <unicode hex="0037"/>
  <outline>
    <contour>
      <point x="143" y="1323" type="line"/>
      <point x="143" y="1492" type="line"/>
      <point x="1028" y="1492" type="line"/>
      <point x="1028" y="1347" type="line"/>
      <point x="604" y="0" type="line"/>
      <point x="372" y="0" type="line"/>
      <point x="790" y="1323" type="line"/>
    </contour>
  </outline>
</glyph>
<glyph name="eight" format="1">
  <advance width="1229"/>
  <unicode hex="0038"/>
  <outline>
    <contour>
      <point x="849" y="1150" type="curve" smooth="yes"/>
      <point x="849" y="1281"/>
      <point x="754" y="1363"/>
      <point x="626" y="1363" type="curve" smooth="yes"/>
      <point x="499" y="1363"/>
      <point x="404" y="1280"/>
      <point x="404" y="1150" type="curve" smooth="yes"/>
      <point x="404" y="982"/>
      <point x="497" y="909"/>
      <point x="626" y="874" type="curve"/>
      <point x="755" y="909"/>
      <point x="849" y="982"/>
    </contour>
    <contour>
      <point x="1070" y="406" type="curve" smooth="yes"/>
      <point x="1070" y="131"/>
      <point x="899" y="-24"/>
      <point x="626" y="-24" type="curve" smooth="yes"/>
      <point x="353" y="-24"/>
      <point x="181" y="131"/>
      <point x="181" y="406" type="curve" smooth="yes"/>
      <point x="181" y="612"/>
      <point x="331" y="730"/>
      <point x="491" y="778" type="curve"/>
      <point x="334" y="833"/>
      <point x="211" y="942"/>
      <point x="211" y="1142" type="curve" smooth="yes"/>
      <point x="211" y="1380"/>
      <point x="392" y="1516"/>
      <point x="626" y="1516" type="curve" smooth="yes"/>
      <point x="860" y="1516"/>
      <point x="1042" y="1380"/>
      <point x="1042" y="1142" type="curve" smooth="yes"/>
      <point x="1042" y="943"/>
      <point x="919" y="833"/>
      <point x="762" y="778" type="curve"/>
      <point x="922" y="730"/>
      <point x="1070" y="611"/>
    </contour>
    <contour>
      <point x="396" y="378" type="curve" smooth="yes"/>
      <point x="396" y="224"/>
      <point x="477" y="130"/>
      <point x="626" y="130" type="curve" smooth="yes"/>
      <point x="776" y="130"/>
      <point x="857" y="223"/>
      <point x="857" y="378" type="curve" smooth="yes"/>
      <point x="857" y="554"/>
      <point x="759" y="638"/>
      <point x="626" y="678" type="curve"/>
      <point x="494" y="638"/>
      <point x="396" y="553"/>
    </contour>
  </outline>
</glyph>
<glyph name="nine" format="1">
  <advance width="1229"/>
  <unicode hex="0039"/>
  <outline>
    <contour>
      <point x="953" y="1064" type="curve" smooth="yes"/>
      <point x="953" y="1238"/>
      <point x="843" y="1363"/>
      <point x="667" y="1363" type="curve" smooth="yes"/>
      <point x="497" y="1363"/>
      <point x="383" y="1233"/>
      <point x="383" y="1056" type="curve" smooth="yes"/>
      <point x="383" y="883"/>
      <point x="482" y="750"/>
      <point x="655" y="750" type="curve" smooth="yes"/>
      <point x="853" y="750"/>
      <point x="953" y="886"/>
    </contour>
    <contour>
      <point x="665" y="1517" type="curve" smooth="yes"/>
      <point x="972" y="1517"/>
      <point x="1153" y="1334"/>
      <point x="1153" y="1029" type="curve" smooth="yes"/>
      <point x="1153" y="838"/>
      <point x="1079" y="699"/>
      <point x="989" y="583" type="curve" smooth="yes"/>
      <point x="539" y="0" type="line"/>
      <point x="297" y="0" type="line"/>
      <point x="831" y="669" type="line"/>
      <point x="780" y="637"/>
      <point x="694" y="610"/>
      <point x="615" y="610" type="curve" smooth="yes"/>
      <point x="353" y="610"/>
      <point x="193" y="790"/>
      <point x="193" y="1052" type="curve" smooth="yes"/>
      <point x="193" y="1352"/>
      <point x="420" y="1517"/>
    </contour>
  </outline>
</glyph>
<glyph name="less" format="1">
  <advance width="1229"/>
  <unicode hex="003C"/>
  <outline>
    <contour>
      <point x="1174" y="367" type="line"/>
      <point x="1174" y="190" type="line"/>
      <point x="152" y="689" type="line"/>
      <point x="152" y="807" type="line"/>
      <point x="1178" y="1321" type="line"/>
      <point x="1178" y="1142" type="line"/>
      <point x="395" y="749" type="line"/>
    </contour>
  </outline>
</glyph>
<glyph name="greater" format="1">
  <advance width="1229"/>
  <unicode hex="003E"/>
  <outline>
    <contour>
      <point x="158" y="1155" type="line"/>
      <point x="158" y="1321" type="line"/>
      <point x="1178" y="794" type="line"/>
      <point x="1178" y="699" type="line"/>
      <point x="152" y="213" type="line"/>
      <point x="152" y="380" type="line"/>
      <point x="933" y="753" type="line"/>
    </contour>
  </outline>
</glyph>
<glyph name="at" format="1">
  <advance width="1229"/>
  <unicode hex="0040"/>
  <outline>
    <contour>
      <point x="813" y="746" type="curve" smooth="yes"/>
      <point x="813" y="882"/>
      <point x="794" y="1029"/>
      <point x="679" y="1029" type="curve" smooth="yes"/>
      <point x="533" y="1029"/>
      <point x="493" y="751"/>
      <point x="493" y="620" type="curve" smooth="yes"/>
      <point x="493" y="511"/>
      <point x="515" y="394"/>
      <point x="628" y="394" type="curve" smooth="yes"/>
      <point x="758" y="394"/>
      <point x="813" y="626"/>
    </contour>
    <contour>
      <point x="921" y="523" type="curve" smooth="yes"/>
      <point x="921" y="468"/>
      <point x="949" y="386"/>
      <point x="999" y="386" type="curve" smooth="yes"/>
      <point x="1106" y="386"/>
      <point x="1143" y="770"/>
      <point x="1143" y="904" type="curve" smooth="yes"/>
      <point x="1143" y="1201"/>
      <point x="995" y="1440"/>
      <point x="724" y="1440" type="curve" smooth="yes"/>
      <point x="358" y="1440"/>
      <point x="193" y="1066"/>
      <point x="193" y="641" type="curve" smooth="yes"/>
      <point x="193" y="282"/>
      <point x="366" y="1"/>
      <point x="692" y="1" type="curve" smooth="yes"/>
      <point x="868" y="1"/>
      <point x="1005" y="77"/>
      <point x="1115" y="173" type="curve"/>
      <point x="1163" y="117" type="line"/>
      <point x="1043" y="1"/>
      <point x="887" y="-88"/>
      <point x="681" y="-88" type="curve" smooth="yes"/>
      <point x="253" y="-88"/>
      <point x="80" y="309"/>
      <point x="80" y="643" type="curve" smooth="yes"/>
      <point x="80" y="1154"/>
      <point x="357" y="1516"/>
      <point x="706" y="1516" type="curve" smooth="yes"/>
      <point x="1079" y="1516"/>
      <point x="1237" y="1234"/>
      <point x="1237" y="910" type="curve" smooth="yes"/>
      <point x="1237" y="666"/>
      <point x="1177" y="304"/>
      <point x="989" y="304" type="curve" smooth="yes"/>
      <point x="884" y="304"/>
      <point x="833" y="393"/>
      <point x="822" y="504" type="curve"/>
      <point x="774" y="342"/>
      <point x="669" y="296"/>
      <point x="602" y="296" type="curve" smooth="yes"/>
      <point x="432" y="296"/>
      <point x="377" y="472"/>
      <point x="377" y="650" type="curve" smooth="yes"/>
      <point x="377" y="886"/>
      <point x="495" y="1130"/>
      <point x="669" y="1130" type="curve" smooth="yes"/>
      <point x="760" y="1130"/>
      <point x="814" y="1042"/>
      <point x="842" y="970" type="curve"/>
      <point x="863" y="1097" type="line"/>
      <point x="978" y="1097" type="line" smooth="yes"/>
      <point x="977" y="1097"/>
      <point x="921" y="731"/>
    </contour>
  </outline>
</glyph>
<glyph name="Q" format="1">
  <advance width="1229"/>
  <unicode hex="0051"/>
  <outline>
    <contour>
      <point x="575" y="1363" type="curve" smooth="yes"/>
      <point x="378" y="1363"/>
      <point x="280" y="1091"/>
      <point x="280" y="746" type="curve" smooth="yes"/>
      <point x="280" y="401"/>
      <point x="379" y="130"/>
      <point x="575" y="130" type="curve" smooth="yes"/>
      <point x="771" y="130"/>
      <point x="870" y="401"/>
      <point x="870" y="746" type="curve" smooth="yes"/>
      <point x="870" y="1091"/>
      <point x="772" y="1363"/>
    </contour>
    <contour>
      <point x="575" y="-25" type="curve" smooth="yes"/>
      <point x="236" y="-25"/>
      <point x="84" y="337"/>
      <point x="84" y="747" type="curve" smooth="yes"/>
      <point x="84" y="1124"/>
      <point x="203" y="1516"/>
      <point x="575" y="1516" type="curve" smooth="yes"/>
      <point x="947" y="1516"/>
      <point x="1066" y="1124"/>
      <point x="1066" y="747" type="curve" smooth="yes"/>
      <point x="1066" y="423.039"/>
      <point x="971.101" y="129.047"/>
      <point x="764.038" y="19.9235" type="curve"/>
      <point x="832.036" y="-117.043"/>
      <point x="930.021" y="-232.018"/>
      <point x="1040" y="-330" type="curve"/>
      <point x="916" y="-458" type="line"/>
      <point x="787.488" y="-333.443"/>
      <point x="672.658" y="-191.295"/>
      <point x="588.898" y="-24.7949" type="curve"/>
      <point x="584.301" y="-24.9314"/>
      <point x="579.668" y="-25"/>
    </contour>
  </outline>
</glyph>
<glyph name="V" format="1">
  <advance width="1229"/>
  <unicode hex="0056"/>
  <outline>
    <contour>
      <point x="967" y="1491" type="line"/>
      <point x="1172" y="1491" type="line"/>
      <point x="722" y="0" type="line"/>
      <point x="505" y="0" type="line"/>
      <point x="57" y="1491" type="line"/>
      <point x="262" y="1491" type="line"/>
      <point x="617" y="223" type="line"/>
    </contour>
  </outline>
</glyph>
<glyph name="W" format="1">
  <advance width="1230"/>
  <unicode hex="0057"/>
  <outline>
    <contour>
      <point x="869" y="191" type="line"/>
      <point x="965" y="1491" type="line"/>
      <point x="1140" y="1491" type="line"/>
      <point x="1004" y="0" type="line"/>
      <point x="789" y="0" type="line"/>
      <point x="616" y="699" type="line"/>
      <point x="432" y="0" type="line"/>
      <point x="223" y="0" type="line"/>
      <point x="90" y="1491" type="line"/>
      <point x="265" y="1491" type="line"/>
      <point x="358" y="191" type="line"/>
      <point x="512" y="845" type="line"/>
      <point x="721" y="845" type="line"/>
    </contour>
    <contour>
      <point x="614" y="0" type="move" name="top"/>
    </contour>
  </outline>
</glyph>
<glyph name="backslash" format="1">
  <advance width="1229"/>
  <unicode hex="005C"/>
  <outline>
    <contour>
      <point x="1082" y="-48" type="line"/>
      <point x="902" y="-48" type="line"/>
      <point x="193" y="1761" type="line"/>
      <point x="377" y="1761" type="line"/>
    </contour>
  </outline>
</glyph>
<glyph name="bracketright" format="1">
  <advance width="1229"/>
  <unicode hex="005D"/>
  <outline>
    <contour>
      <point x="775" y="-131" type="line"/>
      <point x="774" y="-134"/>
      <point x="773" y="-135"/>
      <point x="770" y="-136" type="curve"/>
      <point x="255" y="-136" type="line"/>
      <point x="252" y="-135"/>
      <point x="251" y="-134"/>
      <point x="250" y="-131" type="curve"/>
      <point x="250" y="1" type="line"/>
      <point x="251" y="4"/>
      <point x="252" y="5"/>
      <point x="255" y="6" type="curve"/>
      <point x="586" y="6" type="line"/>
      <point x="586" y="1588" type="line"/>
      <point x="256" y="1588" type="line"/>
      <point x="253" y="1589"/>
      <point x="252" y="1590"/>
      <point x="251" y="1593" type="curve"/>
      <point x="251" y="1725" type="line"/>
      <point x="252" y="1728"/>
      <point x="253" y="1729"/>
      <point x="256" y="1730" type="curve"/>
      <point x="770" y="1730" type="line"/>
      <point x="773" y="1729"/>
      <point x="774" y="1728"/>
      <point x="775" y="1725" type="curve"/>
    </contour>
  </outline>
</glyph>
<glyph name="underscore" format="1">
  <advance width="1229"/>
  <unicode hex="005F"/>
  <outline>
    <contour>
      <point x="4" y="-296" type="line"/>
      <point x="4" y="-157" type="line"/>
      <point x="1076" y="-157" type="line"/>
      <point x="1076" y="-296" type="line"/>
    </contour>
  </outline>
</glyph>
<glyph name="b" format="1">
  <advance width="1229"/>
  <unicode hex="0062"/>
  <outline>
    <contour>
      <point x="353" y="555" type="curve" smooth="yes"/>
      <point x="353" y="319"/>
      <point x="407" y="116"/>
      <point x="648" y="116" type="curve" smooth="yes"/>
      <point x="878" y="116"/>
      <point x="931" y="341"/>
      <point x="931" y="555" type="curve" smooth="yes"/>
      <point x="931" y="779"/>
      <point x="886" y="990"/>
      <point x="648" y="990" type="curve" smooth="yes"/>
      <point x="399" y="990"/>
      <point x="353" y="797"/>
    </contour>
    <contour>
      <point x="353" y="946" type="line"/>
      <point x="414" y="1046"/>
      <point x="505" y="1130"/>
      <point x="681" y="1130" type="curve" smooth="yes"/>
      <point x="990" y="1130"/>
      <point x="1114" y="879"/>
      <point x="1114" y="568" type="curve" smooth="yes"/>
      <point x="1114" y="248"/>
      <point x="989" y="-25"/>
      <point x="670" y="-25" type="curve" smooth="yes"/>
      <point x="501" y="-25"/>
      <point x="430" y="49"/>
      <point x="353" y="150" type="curve"/>
      <point x="351" y="0" type="line"/>
      <point x="171" y="0" type="line"/>
      <point x="171" y="1545" type="line"/>
      <point x="353" y="1565" type="line"/>
    </contour>
  </outline>
</glyph>
<glyph name="f" format="1">
  <advance width="1229"/>
  <unicode hex="0066"/>
  <outline>
    <contour>
      <point x="675" y="0" type="line"/>
      <point x="493" y="0" type="line"/>
      <point x="493" y="957" type="line"/>
      <point x="206" y="957" type="line"/>
      <point x="206" y="1097" type="line"/>
      <point x="493" y="1097" type="line"/>
      <point x="493" y="1433"/>
      <point x="520" y="1585"/>
      <point x="944" y="1585" type="curve" smooth="yes"/>
      <point x="1050" y="1585" type="line"/>
      <point x="1040" y="1445" type="line"/>
      <point x="940" y="1445" type="line" smooth="yes"/>
      <point x="751" y="1445"/>
      <point x="675" y="1419"/>
      <point x="675" y="1230" type="curve" smooth="yes"/>
      <point x="675" y="1097" type="line"/>
      <point x="1050" y="1097" type="line"/>
      <point x="1050" y="957" type="line"/>
      <point x="675" y="957" type="line"/>
    </contour>
  </outline>
</glyph>
<glyph name="m" format="1">
  <advance width="1229"/>
  <unicode hex="006D"/>
  <outline>
    <contour>
      <point x="857" y="990" type="curve" smooth="yes"/>
      <point x="703" y="990"/>
      <point x="703" y="801"/>
      <point x="703" y="680" type="curve" smooth="yes"/>
      <point x="703" y="0" type="line"/>
      <point x="550" y="0" type="line"/>
      <point x="550" y="669" type="line" smooth="yes"/>
      <point x="550" y="802"/>
      <point x="547" y="990"/>
      <point x="423" y="990" type="curve" smooth="yes"/>
      <point x="311" y="990"/>
      <point x="267" y="836"/>
      <point x="267" y="721" type="curve" smooth="yes"/>
      <point x="267" y="0" type="line"/>
      <point x="100" y="0" type="line"/>
      <point x="100" y="1097" type="line"/>
      <point x="245" y="1097" type="line"/>
      <point x="256" y="952" type="line"/>
      <point x="288" y="1036"/>
      <point x="352" y="1130"/>
      <point x="462" y="1130" type="curve" smooth="yes"/>
      <point x="567" y="1130"/>
      <point x="640" y="1065"/>
      <point x="668" y="960" type="curve"/>
      <point x="711" y="1070"/>
      <point x="780" y="1130"/>
      <point x="899" y="1130" type="curve" smooth="yes"/>
      <point x="1107" y="1130"/>
      <point x="1140" y="914"/>
      <point x="1140" y="703" type="curve" smooth="yes"/>
      <point x="1140" y="0" type="line"/>
      <point x="973" y="0" type="line"/>
      <point x="973" y="682" type="line" smooth="yes"/>
      <point x="973" y="824"/>
      <point x="973" y="990"/>
    </contour>
  </outline>
</glyph>
<glyph name="exclamdown" format="1">
  <advance width="1229"/>
  <unicode hex="00A1"/>
  <outline>
    <contour>
      <point x="723" y="1184" type="line"/>
      <point x="723" y="959" type="line"/>
      <point x="487" y="959" type="line"/>
      <point x="487" y="1184" type="line"/>
    </contour>
    <contour>
      <point x="542" y="-417" type="line"/>
      <point x="542" y="753" type="line"/>
      <point x="715" y="753" type="line"/>
      <point x="715" y="-417" type="line"/>
    </contour>
  </outline>
</glyph>
<glyph name="cent" format="1">
  <advance width="1229"/>
  <unicode hex="00A2"/>
  <outline>
    <contour>
      <point x="752" y="-277" type="line"/>
      <point x="624" y="-277" type="line"/>
      <point x="624" y="-19.8501" type="line"/>
      <point x="332.934" y="19.1015"/>
      <point x="173" y="273.511"/>
      <point x="173" y="555" type="curve" smooth="yes"/>
      <point x="173" y="833.768"/>
      <point x="342.282" y="1086.29"/>
      <point x="624" y="1124.9" type="curve"/>
      <point x="624" y="1368" type="line"/>
      <point x="752" y="1368" type="line"/>
      <point x="752" y="1127.96" type="line"/>
      <point x="857.282" y="1119.59"/>
      <point x="945.584" y="1085.83"/>
      <point x="999" y="1035" type="curve"/>
      <point x="953" y="913" type="line"/>
      <point x="887.014" y="956.991"/>
      <point x="818.56" y="979.383"/>
      <point x="752" y="986.965" type="curve"/>
      <point x="752" y="117.107" type="line"/>
      <point x="833.946" y="125.521"/>
      <point x="905.575" y="158.045"/>
      <point x="958" y="195" type="curve"/>
      <point x="1002" y="72" type="line"/>
      <point x="940.697" y="14.9546"/>
      <point x="846.048" y="-15.2687"/>
      <point x="752" y="-22.9903" type="curve"/>
    </contour>
    <contour>
      <point x="624" y="125.411" type="curve"/>
      <point x="624" y="981.086" type="line"/>
      <point x="464.068" y="941.326"/>
      <point x="357" y="772.368"/>
      <point x="357" y="551" type="curve" smooth="yes"/>
      <point x="357" y="334.902"/>
      <point x="455.502" y="167.725"/>
    </contour>
  </outline>
</glyph>
<glyph name="sterling" format="1">
  <advance width="1229"/>
  <unicode hex="00A3"/>
  <outline>
    <contour>
      <point x="1038" y="0" type="line"/>
      <point x="120" y="0" type="line"/>
      <point x="119" y="150" type="line"/>
      <point x="236" y="215"/>
      <point x="321" y="300"/>
      <point x="321" y="478" type="curve" smooth="yes"/>
      <point x="321" y="756" type="line"/>
      <point x="119" y="756" type="line"/>
      <point x="119" y="903" type="line"/>
      <point x="320" y="903" type="line"/>
      <point x="315" y="945"/>
      <point x="313" y="986"/>
      <point x="313" y="1026" type="curve" smooth="yes"/>
      <point x="313" y="1344"/>
      <point x="410" y="1572"/>
      <point x="744" y="1572" type="curve" smooth="yes"/>
      <point x="896" y="1572"/>
      <point x="964" y="1528"/>
      <point x="1018" y="1473" type="curve"/>
      <point x="960" y="1343" type="line"/>
      <point x="919" y="1381"/>
      <point x="867" y="1418"/>
      <point x="751" y="1418" type="curve" smooth="yes"/>
      <point x="541.99" y="1418"/>
      <point x="504" y="1253"/>
      <point x="504" y="1028" type="curve"/>
      <point x="508" y="903" type="line"/>
      <point x="874" y="903" type="line"/>
      <point x="874" y="756" type="line"/>
      <point x="511" y="756" type="line"/>
      <point x="511" y="605" type="line" smooth="yes"/>
      <point x="511" y="421"/>
      <point x="501" y="231"/>
      <point x="401" y="153" type="curve"/>
      <point x="1038" y="153" type="line"/>
    </contour>
  </outline>
</glyph>
<glyph name="currency" format="1">
  <advance width="1229"/>
  <unicode hex="00A4"/>
  <outline>
    <contour>
      <point x="325" y="1264" type="line"/>
      <point x="402" y="1334"/>
      <point x="505" y="1376"/>
      <point x="617" y="1376" type="curve" smooth="yes"/>
      <point x="731" y="1376"/>
      <point x="834" y="1333"/>
      <point x="912" y="1261" type="curve"/>
      <point x="1149" y="1480" type="line"/>
      <point x="1194" y="1424" type="line"/>
      <point x="960" y="1208" type="line"/>
      <point x="1017" y="1134"/>
      <point x="1052" y="1041"/>
      <point x="1052" y="941" type="curve" smooth="yes"/>
      <point x="1052" y="841"/>
      <point x="1018" y="749"/>
      <point x="961" y="675" type="curve"/>
      <point x="1194" y="459" type="line"/>
      <point x="1149" y="403" type="line"/>
      <point x="912" y="622" type="line"/>
      <point x="834" y="550"/>
      <point x="731" y="506"/>
      <point x="617" y="506" type="curve" smooth="yes"/>
      <point x="504" y="506"/>
      <point x="401" y="549"/>
      <point x="324" y="619" type="curve"/>
      <point x="91" y="403" type="line"/>
      <point x="38" y="454" type="line"/>
      <point x="275" y="672" type="line"/>
      <point x="217" y="746"/>
      <point x="182" y="840"/>
      <point x="182" y="941" type="curve" smooth="yes"/>
      <point x="182" y="1043"/>
      <point x="217" y="1136"/>
      <point x="275" y="1210" type="curve"/>
      <point x="38" y="1429" type="line"/>
      <point x="91" y="1480" type="line"/>
    </contour>
    <contour>
      <point x="272" y="941" type="curve" smooth="yes"/>
      <point x="272" y="751"/>
      <point x="427" y="596"/>
      <point x="617" y="596" type="curve" smooth="yes"/>
      <point x="807" y="596"/>
      <point x="962" y="751"/>
      <point x="962" y="941" type="curve" smooth="yes"/>
      <point x="962" y="1131"/>
      <point x="807" y="1286"/>
      <point x="617" y="1286" type="curve" smooth="yes"/>
      <point x="427" y="1286"/>
      <point x="272" y="1131"/>
    </contour>
  </outline>
</glyph>
<glyph name="brokenbar" format="1">
  <advance width="1229"/>
  <unicode hex="00A6"/>
  <outline>
    <contour>
      <point x="539" y="1677" type="line"/>
      <point x="711" y="1677" type="line"/>
      <point x="711" y="735" type="line"/>
      <point x="539" y="735" type="line"/>
    </contour>
    <contour>
      <point x="539" y="427" type="line"/>
      <point x="711" y="427" type="line"/>
      <point x="711" y="-533" type="line"/>
      <point x="539" y="-533" type="line"/>
    </contour>
  </outline>
</glyph>
<glyph name="copyright" format="1">
  <advance width="1229"/>
  <unicode hex="00A9"/>
  <outline>
    <contour>
      <point x="1234" y="1069" type="line"/>
      <point x="1162" y="1131"/>
      <point x="1062" y="1173"/>
      <point x="937" y="1173" type="curve" smooth="yes"/>
      <point x="712" y="1173"/>
      <point x="568" y="1018"/>
      <point x="568" y="795" type="curve"/>
      <point x="570" y="795" type="line"/>
      <point x="570" y="565"/>
      <point x="720" y="413"/>
      <point x="951" y="413" type="curve" smooth="yes"/>
      <point x="1066" y="413"/>
      <point x="1162" y="443"/>
      <point x="1229" y="499" type="curve"/>
      <point x="1273" y="368" type="line"/>
      <point x="1185" y="306"/>
      <point x="1072" y="270"/>
      <point x="932" y="270" type="curve" smooth="yes"/>
      <point x="595" y="270"/>
      <point x="400" y="527"/>
      <point x="400" y="792" type="curve" smooth="yes"/>
      <point x="400" y="1132"/>
      <point x="663" y="1311"/>
      <point x="944" y="1311" type="curve" smooth="yes"/>
      <point x="1082" y="1311"/>
      <point x="1188" y="1267"/>
      <point x="1269" y="1200" type="curve"/>
    </contour>
    <contour>
      <point x="896" y="1483" type="curve" smooth="yes"/>
      <point x="459" y="1483"/>
      <point x="146" y="1184"/>
      <point x="146" y="813" type="curve" smooth="yes"/>
      <point x="146" y="350"/>
      <point x="513" y="92"/>
      <point x="876" y="92" type="curve" smooth="yes"/>
      <point x="1348" y="92"/>
      <point x="1650" y="394"/>
      <point x="1650" y="786" type="curve" smooth="yes"/>
      <point x="1650" y="1249"/>
      <point x="1245" y="1483"/>
    </contour>
    <contour>
      <point x="1793" y="787" type="line"/>
      <point x="1793" y="433"/>
      <point x="1588" y="201"/>
      <point x="1353" y="76" type="curve" smooth="yes"/>
      <point x="1232" y="12"/>
      <point x="1081" y="-34"/>
      <point x="904" y="-34" type="curve" smooth="yes"/>
      <point x="536" y="-34"/>
      <point x="274" y="142"/>
      <point x="129" y="369" type="curve" smooth="yes"/>
      <point x="58" y="480"/>
      <point x="6" y="617"/>
      <point x="6" y="788" type="curve" smooth="yes"/>
      <point x="6" y="1143"/>
      <point x="214" y="1373"/>
      <point x="449" y="1499" type="curve" smooth="yes"/>
      <point x="570" y="1564"/>
      <point x="720" y="1610"/>
      <point x="898" y="1610" type="curve" smooth="yes"/>
      <point x="1266" y="1610"/>
      <point x="1523" y="1432"/>
      <point x="1669" y="1205" type="curve" smooth="yes"/>
      <point x="1739" y="1096"/>
      <point x="1792" y="956"/>
      <point x="1792" y="787" type="curve"/>
    </contour>
  </outline>
</glyph>
<glyph name="degree" format="1">
  <advance width="1229"/>
  <unicode hex="00B0"/>
  <outline>
    <contour>
      <point x="1006" y="1248" type="curve" smooth="yes"/>
      <point x="1006" y="1060"/>
      <point x="840" y="929"/>
      <point x="653" y="929" type="curve" smooth="yes"/>
      <point x="440" y="929"/>
      <point x="299" y="1096"/>
      <point x="299" y="1248" type="curve" smooth="yes"/>
      <point x="299" y="1437"/>
      <point x="464" y="1567"/>
      <point x="653" y="1567" type="curve" smooth="yes"/>
      <point x="865" y="1567"/>
      <point x="1006" y="1405"/>
    </contour>
    <contour>
      <point x="653" y="1054" type="curve" smooth="yes"/>
      <point x="770" y="1054"/>
      <point x="868" y="1134"/>
      <point x="868" y="1250" type="curve" smooth="yes"/>
      <point x="868" y="1366"/>
      <point x="769" y="1442"/>
      <point x="653" y="1442" type="curve" smooth="yes"/>
      <point x="538" y="1442"/>
      <point x="438" y="1365"/>
      <point x="438" y="1250" type="curve" smooth="yes"/>
      <point x="438" y="1134"/>
      <point x="536" y="1054"/>
    </contour>
  </outline>
</glyph>
<glyph name="uni00B2" format="1">
  <advance width="1229"/>
  <unicode hex="00B2"/>
  <outline>
    <contour>
      <point x="604" y="1564" type="curve" smooth="yes"/>
      <point x="776" y="1564"/>
      <point x="916" y="1489"/>
      <point x="916" y="1317" type="curve" smooth="yes"/>
      <point x="916" y="1191"/>
      <point x="839" y="1093"/>
      <point x="772" y="1020" type="curve" smooth="yes"/>
      <point x="697" y="937"/>
      <point x="596" y="854"/>
      <point x="514" y="784" type="curve"/>
      <point x="915" y="784" type="line"/>
      <point x="915" y="656" type="line"/>
      <point x="312" y="656" type="line"/>
      <point x="312" y="776" type="line"/>
      <point x="459" y="910"/>
      <point x="644" y="1056"/>
      <point x="747" y="1233" type="curve" smooth="yes"/>
      <point x="765" y="1264"/>
      <point x="774" y="1291"/>
      <point x="774" y="1315" type="curve"/>
      <point x="775" y="1315" type="line"/>
      <point x="775" y="1399"/>
      <point x="705" y="1436"/>
      <point x="621" y="1436" type="curve" smooth="yes"/>
      <point x="514" y="1436"/>
      <point x="450" y="1369"/>
      <point x="414" y="1294" type="curve"/>
      <point x="319" y="1378" type="line"/>
      <point x="363" y="1477"/>
      <point x="464" y="1564"/>
    </contour>
  </outline>
</glyph>
<glyph name="uni00B3" format="1">
  <advance width="1229"/>
  <unicode hex="00B3"/>
  <outline>
    <contour>
      <point x="379" y="846" type="line"/>
      <point x="427" y="802"/>
      <point x="494" y="761"/>
      <point x="580" y="761" type="curve"/>
      <point x="580" y="760" type="line"/>
      <point x="683" y="760"/>
      <point x="773" y="804"/>
      <point x="773" y="907" type="curve" smooth="yes"/>
      <point x="773" y="1026"/>
      <point x="654" y="1053"/>
      <point x="535" y="1053" type="curve"/>
      <point x="473" y="1051" type="line"/>
      <point x="473" y="1181" type="line"/>
      <point x="602" y="1181"/>
      <point x="746" y="1182"/>
      <point x="746" y="1312" type="curve" smooth="yes"/>
      <point x="746" y="1403"/>
      <point x="681" y="1434"/>
      <point x="590" y="1434" type="curve" smooth="yes"/>
      <point x="501" y="1434"/>
      <point x="430" y="1391"/>
      <point x="377" y="1350" type="curve"/>
      <point x="313" y="1454" type="line"/>
      <point x="380" y="1516"/>
      <point x="472" y="1564"/>
      <point x="593" y="1564" type="curve" smooth="yes"/>
      <point x="760" y="1564"/>
      <point x="893" y="1472"/>
      <point x="893" y="1306" type="curve" smooth="yes"/>
      <point x="893" y="1211"/>
      <point x="841" y="1156"/>
      <point x="774" y="1120" type="curve"/>
      <point x="857" y="1084"/>
      <point x="916" y="1016"/>
      <point x="916" y="905" type="curve" smooth="yes"/>
      <point x="916" y="731"/>
      <point x="761" y="636"/>
      <point x="586" y="636" type="curve" smooth="yes"/>
      <point x="468" y="636"/>
      <point x="377" y="679"/>
      <point x="313" y="741" type="curve"/>
    </contour>
  </outline>
</glyph>
<glyph name="uni00B5" format="1">
  <advance width="1229"/>
  <unicode hex="00B5"/>
  <outline>
    <contour>
      <point x="378" y="48.8887" type="curve"/>
      <point x="378" y="-295" type="line"/>
      <point x="196" y="-295" type="line"/>
      <point x="196" y="1097" type="line"/>
      <point x="378" y="1097" type="line"/>
      <point x="378" y="420.683" type="line" smooth="yes"/>
      <point x="378" y="254.172"/>
      <point x="383.402" y="107"/>
      <point x="601" y="107" type="curve" smooth="yes"/>
      <point x="739" y="107"/>
      <point x="872" y="199"/>
      <point x="872" y="355" type="curve" smooth="yes"/>
      <point x="872" y="1097" type="line"/>
      <point x="1054" y="1097" type="line"/>
      <point x="1054" y="0" type="line"/>
      <point x="887" y="0" type="line"/>
      <point x="877" y="119" type="line"/>
      <point x="814" y="37.3684"/>
      <point x="704" y="-22"/>
      <point x="537" y="-22" type="curve" smooth="yes"/>
      <point x="474.238" y="-22"/>
      <point x="421.63" y="2.71567"/>
    </contour>
  </outline>
</glyph>
<glyph name="paragraph" format="1">
  <advance width="1229"/>
  <unicode hex="00B6"/>
  <outline>
    <contour>
      <point x="66" y="1227" type="curve" smooth="yes"/>
      <point x="66" y="1514"/>
      <point x="350" y="1575"/>
      <point x="637" y="1575" type="curve" smooth="yes"/>
      <point x="1065" y="1575" type="line"/>
      <point x="1065" y="1441" type="line"/>
      <point x="969" y="1441" type="line"/>
      <point x="969" y="-160" type="line"/>
      <point x="825" y="-160" type="line"/>
      <point x="825" y="1441" type="line"/>
      <point x="595" y="1441" type="line"/>
      <point x="595" y="-160" type="line"/>
      <point x="438" y="-160" type="line"/>
      <point x="438" y="853" type="line"/>
      <point x="222" y="856"/>
      <point x="66" y="1010"/>
    </contour>
  </outline>
</glyph>
<glyph name="periodcentered" format="1">
  <advance width="1229"/>
  <unicode hex="00B7"/>
  <outline>
    <contour>
      <point x="487" y="557" type="line"/>
      <point x="487" y="785" type="line"/>
      <point x="728" y="785" type="line"/>
      <point x="728" y="557" type="line"/>
    </contour>
  </outline>
</glyph>
<glyph name="uni00B9" format="1">
  <advance width="1229"/>
  <unicode hex="00B9"/>
  <outline>
    <contour>
      <point x="564" y="1381" type="line"/>
      <point x="509" y="1353"/>
      <point x="455" y="1329"/>
      <point x="396" y="1306" type="curve"/>
      <point x="397" y="1447" type="line"/>
      <point x="466" y="1470"/>
      <point x="524" y="1498"/>
      <point x="582" y="1533" type="curve"/>
      <point x="698" y="1549" type="line"/>
      <point x="698" y="781" type="line"/>
      <point x="833" y="781" type="line"/>
      <point x="833" y="656" type="line"/>
      <point x="430" y="656" type="line"/>
      <point x="430" y="785" type="line"/>
      <point x="564" y="785" type="line"/>
    </contour>
  </outline>
</glyph>
<glyph name="ordmasculine" format="1">
  <advance width="1229"/>
  <unicode hex="00BA"/>
  <outline>
    <contour>
      <point x="684" y="950" type="curve" smooth="yes"/>
      <point x="837" y="950"/>
      <point x="927" y="1062"/>
      <point x="927" y="1214" type="curve" smooth="yes"/>
      <point x="927" y="1376"/>
      <point x="845" y="1486"/>
      <point x="681" y="1486" type="curve" smooth="yes"/>
      <point x="522" y="1486"/>
      <point x="437" y="1375"/>
      <point x="437" y="1218" type="curve" smooth="yes"/>
      <point x="437" y="1059"/>
      <point x="523" y="950"/>
    </contour>
    <contour>
      <point x="684" y="833" type="curve" smooth="yes"/>
      <point x="440" y="833"/>
      <point x="281" y="977"/>
      <point x="281" y="1220" type="curve" smooth="yes"/>
      <point x="281" y="1456"/>
      <point x="444" y="1602"/>
      <point x="682" y="1602" type="curve" smooth="yes"/>
      <point x="926" y="1602"/>
      <point x="1080" y="1459"/>
      <point x="1080" y="1217" type="curve" smooth="yes"/>
      <point x="1080" y="982"/>
      <point x="921" y="833"/>
    </contour>
  </outline>
</glyph>
<glyph name="guillemotright" format="1">
  <advance width="1229"/>
  <unicode hex="00BB"/>
  <outline>
    <contour>
      <point x="636" y="185" type="line"/>
      <point x="926" y="589" type="line"/>
      <point x="645" y="992" type="line"/>
      <point x="817" y="992" type="line"/>
      <point x="1116" y="589" type="line"/>
      <point x="809" y="185" type="line"/>
    </contour>
    <contour>
      <point x="197" y="185" type="line"/>
      <point x="489" y="589" type="line"/>
      <point x="203" y="992" type="line"/>
      <point x="380" y="992" type="line"/>
      <point x="678" y="589" type="line"/>
      <point x="373" y="185" type="line"/>
    </contour>
  </outline>
</glyph>
<glyph name="onequarter" format="1">
  <advance width="1229"/>
  <unicode hex="00BC"/>
  <outline>
    <contour>
      <point x="1353" y="361" type="line"/>
      <point x="1353" y="431"/>
      <point x="1352" y="500"/>
      <point x="1352" y="570" type="curve" smooth="yes"/>
      <point x="1352" y="622"/>
      <point x="1353" y="673"/>
      <point x="1354" y="725" type="curve"/>
      <point x="1091" y="361" type="line"/>
    </contour>
    <contour>
      <point x="191" y="1381" type="line"/>
      <point x="136" y="1352"/>
      <point x="80" y="1326"/>
      <point x="23" y="1306" type="curve"/>
      <point x="24" y="1447" type="line"/>
      <point x="88" y="1468"/>
      <point x="149" y="1497"/>
      <point x="209" y="1533" type="curve"/>
      <point x="326" y="1549" type="line"/>
      <point x="326" y="781" type="line"/>
      <point x="461" y="781" type="line"/>
      <point x="461" y="656" type="line"/>
      <point x="57" y="656" type="line"/>
      <point x="57" y="785" type="line"/>
      <point x="191" y="785" type="line"/>
    </contour>
    <contour>
      <point x="409" y="1" type="line"/>
      <point x="242" y="1" type="line"/>
      <point x="1244" y="1560" type="line"/>
      <point x="1408" y="1560" type="line"/>
    </contour>
    <contour>
      <point x="1354" y="245" type="line"/>
      <point x="936" y="245" type="line"/>
      <point x="936" y="345" type="line"/>
      <point x="1340" y="906" type="line"/>
      <point x="1490" y="906" type="line"/>
      <point x="1490" y="361" type="line"/>
      <point x="1610" y="361" type="line"/>
      <point x="1621" y="245" type="line"/>
      <point x="1487" y="245" type="line"/>
      <point x="1487" y="1" type="line"/>
      <point x="1354" y="41" type="line"/>
    </contour>
  </outline>
</glyph>
<glyph name="questiondown" format="1">
  <advance width="1229"/>
  <unicode hex="00BF"/>
  <outline>
    <contour>
      <point x="799" y="1604" type="line"/>
      <point x="799" y="1376" type="line"/>
      <point x="557" y="1376" type="line"/>
      <point x="557" y="1604" type="line"/>
    </contour>
    <contour>
      <point x="168" y="361" type="curve" smooth="yes"/>
      <point x="168" y="669.388"/>
      <point x="604" y="784.555"/>
      <point x="604" y="1037" type="curve" smooth="yes"/>
      <point x="604" y="1092"/>
      <point x="595" y="1146"/>
      <point x="586" y="1193" type="curve"/>
      <point x="767" y="1193" type="line"/>
      <point x="774" y="1136"/>
      <point x="778" y="1080"/>
      <point x="778" y="1024" type="curve"/>
      <point x="779" y="1023" type="line"/>
      <point x="779" y="805"/>
      <point x="576" y="712"/>
      <point x="465" y="600" type="curve" smooth="yes"/>
      <point x="409" y="544"/>
      <point x="355" y="475"/>
      <point x="355" y="371" type="curve" smooth="yes"/>
      <point x="355" y="199"/>
      <point x="509" y="142"/>
      <point x="680" y="142" type="curve" smooth="yes"/>
      <point x="790" y="142"/>
      <point x="883" y="175"/>
      <point x="959" y="216" type="curve"/>
      <point x="959" y="58" type="line"/>
      <point x="882" y="21"/>
      <point x="788" y="-13"/>
      <point x="680" y="-13" type="curve" smooth="yes"/>
      <point x="403" y="-13"/>
      <point x="168" y="84"/>
    </contour>
  </outline>
</glyph>
<glyph name="Eth" format="1">
  <advance width="1229"/>
  <unicode hex="00D0"/>
  <outline>
    <contour>
      <point x="694" y="160" type="line" smooth="yes"/>
      <point x="1112" y="160"/>
      <point x="1381" y="366"/>
      <point x="1381" y="782" type="curve" smooth="yes"/>
      <point x="1381" y="1275"/>
      <point x="1078" y="1420"/>
      <point x="587" y="1420" type="curve" smooth="yes"/>
      <point x="405" y="1420" type="line"/>
      <point x="405" y="863" type="line"/>
      <point x="633" y="863" type="line"/>
      <point x="633" y="714" type="line"/>
      <point x="405" y="714" type="line"/>
      <point x="405" y="160" type="line"/>
    </contour>
    <contour>
      <point x="563" y="1581" type="line" smooth="yes"/>
      <point x="1167" y="1581"/>
      <point x="1584" y="1391"/>
      <point x="1584" y="786" type="curve" smooth="yes"/>
      <point x="1584" y="259"/>
      <point x="1203" y="0"/>
      <point x="676" y="0" type="curve" smooth="yes"/>
      <point x="215" y="0" type="line"/>
      <point x="215" y="714" type="line"/>
      <point x="0" y="714" type="line"/>
      <point x="0" y="863" type="line"/>
      <point x="215" y="863" type="line"/>
      <point x="215" y="1581" type="line"/>
    </contour>
  </outline>
</glyph>
<glyph name="multiply" format="1">
  <advance width="1229"/>
  <unicode hex="00D7"/>
  <outline>
    <contour>
      <point x="1077" y="280" type="line"/>
      <point x="961" y="168" type="line"/>
      <point x="633" y="489" type="line"/>
      <point x="305" y="168" type="line"/>
      <point x="190" y="278" type="line"/>
      <point x="518" y="602" type="line"/>
      <point x="190" y="924" type="line"/>
      <point x="305" y="1036" type="line"/>
      <point x="633" y="713" type="line"/>
      <point x="961" y="1036" type="line"/>
      <point x="1077" y="923" type="line"/>
      <point x="747" y="602" type="line"/>
    </contour>
  </outline>
</glyph>
<glyph name="germandbls" format="1">
  <advance width="1229"/>
  <unicode hex="00DF"/>
  <outline>
    <contour>
      <point x="664" y="1599" type="curve" smooth="yes"/>
      <point x="912" y="1599"/>
      <point x="1141" y="1504"/>
      <point x="1141" y="1256" type="curve" smooth="yes"/>
      <point x="1141" y="1052"/>
      <point x="944" y="945"/>
      <point x="823" y="858" type="curve"/>
      <point x="1018" y="739"/>
      <point x="1347" y="633"/>
      <point x="1347" y="363" type="curve" smooth="yes"/>
      <point x="1347" y="104"/>
      <point x="1168" y="-26"/>
      <point x="908" y="-26" type="curve" smooth="yes"/>
      <point x="762" y="-26"/>
      <point x="626" y="11"/>
      <point x="541" y="76" type="curve"/>
      <point x="612" y="225" type="line"/>
      <point x="687" y="182"/>
      <point x="782" y="139"/>
      <point x="892" y="139" type="curve" smooth="yes"/>
      <point x="1022" y="139"/>
      <point x="1111" y="217"/>
      <point x="1111" y="347" type="curve" smooth="yes"/>
      <point x="1111" y="498"/>
      <point x="960" y="570"/>
      <point x="862" y="627" type="curve" smooth="yes"/>
      <point x="771" y="680"/>
      <point x="613" y="749"/>
      <point x="613" y="841" type="curve" smooth="yes"/>
      <point x="613" y="929"/>
      <point x="712" y="983"/>
      <point x="768" y="1023" type="curve" smooth="yes"/>
      <point x="838" y="1073"/>
      <point x="922" y="1138"/>
      <point x="922" y="1254" type="curve" smooth="yes"/>
      <point x="922" y="1390"/>
      <point x="796" y="1442"/>
      <point x="660" y="1442" type="curve" smooth="yes"/>
      <point x="462" y="1442"/>
      <point x="382" y="1292"/>
      <point x="382" y="1096" type="curve" smooth="yes"/>
      <point x="382" y="0" type="line"/>
      <point x="164" y="0" type="line"/>
      <point x="164" y="1116" type="line" smooth="yes"/>
      <point x="164" y="1429"/>
      <point x="350" y="1599"/>
    </contour>
  </outline>
</glyph>
<glyph name="thorn" format="1">
  <advance width="1229"/>
  <unicode hex="00FE"/>
  <outline>
    <contour>
      <point x="1048" y="565" type="curve" smooth="yes"/>
      <point x="1048" y="816"/>
      <point x="953" y="996"/>
      <point x="699" y="996" type="curve" smooth="yes"/>
      <point x="434" y="996"/>
      <point x="340" y="798"/>
      <point x="340" y="536" type="curve" smooth="yes"/>
      <point x="340" y="299"/>
      <point x="455" y="118"/>
      <point x="695" y="118" type="curve" smooth="yes"/>
      <point x="941" y="118"/>
      <point x="1048" y="321"/>
    </contour>
    <contour>
      <point x="342" y="957" type="line"/>
      <point x="425" y="1065"/>
      <point x="545" y="1141"/>
      <point x="723" y="1141" type="curve" smooth="yes"/>
      <point x="1063" y="1141"/>
      <point x="1246" y="908"/>
      <point x="1246" y="572" type="curve"/>
      <point x="1245" y="572" type="line"/>
      <point x="1245" y="215"/>
      <point x="1029" y="-25"/>
      <point x="728" y="-25" type="curve" smooth="yes"/>
      <point x="553" y="-25"/>
      <point x="426" y="44"/>
      <point x="341" y="146" type="curve"/>
      <point x="341" y="-464" type="line"/>
      <point x="158" y="-464" type="line"/>
      <point x="158" y="1580" type="line"/>
      <point x="342" y="1580" type="line"/>
    </contour>
  </outline>
</glyph>
<glyph name="Cdotaccent" format="1">
  <advance width="1229"/>
  <unicode hex="010A"/>
  <outline>
    <contour>
      <point x="556" y="1795" type="line"/>
      <point x="733" y="1795" type="line"/>
      <point x="733" y="1618" type="line"/>
      <point x="556" y="1618" type="line"/>
    </contour>
    <component base="C"/>
  </outline>
</glyph>
<glyph name="cdotaccent" format="1">
  <advance width="1229"/>
  <unicode hex="010B"/>
  <outline>
    <contour>
      <point x="504" y="1409" type="line"/>
      <point x="681" y="1409" type="line"/>
      <point x="681" y="1232" type="line"/>
      <point x="504" y="1232" type="line"/>
    </contour>
    <component base="c"/>
  </outline>
</glyph>
<glyph name="Gdotaccent" format="1">
  <advance width="1229"/>
  <unicode hex="0120"/>
  <outline>
    <contour>
      <point x="539" y="1815" type="line"/>
      <point x="716" y="1815" type="line"/>
      <point x="716" y="1638" type="line"/>
      <point x="539" y="1638" type="line"/>
    </contour>
    <component base="G"/>
  </outline>
</glyph>
<glyph name="Gcommaaccent" format="1">
  <advance width="1229"/>
  <unicode hex="0122"/>
  <outline>
    <contour>
      <point x="809" y="-127" type="line"/>
      <point x="628" y="-629" type="line"/>
      <point x="483" y="-629" type="line"/>
      <point x="601" y="-127" type="line"/>
    </contour>
    <component base="G"/>
  </outline>
</glyph>
<glyph name="hbar" format="1">
  <advance width="1229"/>
  <unicode hex="0127"/>
  <outline>
    <contour>
      <point x="1044" y="662" type="curve" smooth="yes"/>
      <point x="1044" y="0" type="line"/>
      <point x="862" y="0" type="line"/>
      <point x="862" y="639" type="line" smooth="yes"/>
      <point x="862" y="827"/>
      <point x="833" y="990"/>
      <point x="650" y="990" type="curve" smooth="yes"/>
      <point x="479" y="990"/>
      <point x="364" y="856"/>
      <point x="364" y="746" type="curve" smooth="yes"/>
      <point x="364" y="0" type="line"/>
      <point x="182" y="0" type="line"/>
      <point x="182" y="1284" type="line"/>
      <point x="4" y="1284" type="line"/>
      <point x="4" y="1430" type="line"/>
      <point x="182" y="1430" type="line"/>
      <point x="182" y="1545" type="line"/>
      <point x="364" y="1565" type="line"/>
      <point x="364" y="1430" type="line"/>
      <point x="638" y="1430" type="line"/>
      <point x="638" y="1284" type="line"/>
      <point x="364" y="1284" type="line"/>
      <point x="364" y="964" type="line"/>
      <point x="417" y="1033"/>
      <point x="523" y="1130"/>
      <point x="707" y="1130" type="curve" smooth="yes"/>
      <point x="957" y="1130"/>
      <point x="1044" y="937"/>
    </contour>
  </outline>
</glyph>
<glyph name="Idotaccent" format="1">
  <advance width="1229"/>
  <unicode hex="0130"/>
  <outline>
    <contour>
      <point x="526" y="1795" type="line"/>
      <point x="703" y="1795" type="line"/>
      <point x="703" y="1618" type="line"/>
      <point x="526" y="1618" type="line"/>
    </contour>
    <component base="I"/>
  </outline>
</glyph>
<glyph name="ij" format="1">
  <advance width="1229"/>
  <unicode hex="0133"/>
  <outline>
    <contour>
      <point x="305.5" y="1386" type="curve" smooth="yes"/>
      <point x="305.5" y="1485" type="line" smooth="yes"/>
      <point x="305.5" y="1535"/>
      <point x="376.5" y="1576"/>
      <point x="426.5" y="1576" type="curve" smooth="yes"/>
      <point x="476.5" y="1576"/>
      <point x="547.5" y="1535"/>
      <point x="547.5" y="1485" type="curve" smooth="yes"/>
      <point x="547.5" y="1386" type="line" smooth="yes"/>
      <point x="547.5" y="1336"/>
      <point x="476.5" y="1295"/>
      <point x="426.5" y="1295" type="curve" smooth="yes"/>
      <point x="376.5" y="1295"/>
      <point x="305.5" y="1336"/>
    </contour>
    <contour>
      <point x="122.5" y="957" type="line"/>
      <point x="122.5" y="1097" type="line"/>
      <point x="517.5" y="1097" type="line"/>
      <point x="517.5" y="140" type="line"/>
      <point x="761.5" y="140" type="line"/>
      <point x="761.5" y="0" type="line"/>
      <point x="87.5" y="0" type="line"/>
      <point x="87.5" y="140" type="line"/>
      <point x="335.5" y="140" type="line"/>
      <point x="335.5" y="957" type="line"/>
    </contour>
    <contour>
      <point x="720.5" y="-220" type="line" smooth="yes"/>
      <point x="906.5" y="-220"/>
      <point x="931.5" y="-176"/>
      <point x="931.5" y="71" type="curve" smooth="yes"/>
      <point x="931.5" y="957" type="line"/>
      <point x="670.5" y="957" type="line"/>
      <point x="670.5" y="1097" type="line"/>
      <point x="1113.5" y="1097" type="line"/>
      <point x="1113.5" y="127" type="line" smooth="yes"/>
      <point x="1113.5" y="-199"/>
      <point x="1096.5" y="-360"/>
      <point x="721.5" y="-360" type="curve" smooth="yes"/>
      <point x="588.5" y="-360" type="line"/>
      <point x="588.5" y="-220" type="line"/>
    </contour>
    <contour>
      <point x="899.5" y="1386" type="curve" smooth="yes"/>
      <point x="899.5" y="1485" type="line" smooth="yes"/>
      <point x="899.5" y="1535"/>
      <point x="970.5" y="1576"/>
      <point x="1020.5" y="1576" type="curve" smooth="yes"/>
      <point x="1070.5" y="1576"/>
      <point x="1141.5" y="1535"/>
      <point x="1141.5" y="1485" type="curve" smooth="yes"/>
      <point x="1141.5" y="1386" type="line" smooth="yes"/>
      <point x="1141.5" y="1336"/>
      <point x="1070.5" y="1295"/>
      <point x="1020.5" y="1295" type="curve" smooth="yes"/>
      <point x="970.5" y="1295"/>
      <point x="899.5" y="1336"/>
    </contour>
  </outline>
</glyph>
<glyph name="kgreenlandic" format="1">
  <advance width="1229"/>
  <unicode hex="0138"/>
  <outline>
    <contour>
      <point x="398" y="604" type="line"/>
      <point x="914" y="1113" type="line"/>
      <point x="1164" y="1113" type="line"/>
      <point x="576" y="555" type="line"/>
      <point x="1204" y="0" type="line"/>
      <point x="962" y="0" type="line"/>
      <point x="397" y="511" type="line"/>
      <point x="397" y="0" type="line"/>
      <point x="215" y="0" type="line"/>
      <point x="215" y="1114" type="line"/>
      <point x="398" y="1114" type="line"/>
    </contour>
  </outline>
</glyph>
<glyph name="Eng" format="1">
  <advance width="1229"/>
  <unicode hex="014A"/>
  <outline>
    <contour>
      <point x="715" y="1518" type="curve" smooth="yes"/>
      <point x="947.487" y="1519"/>
      <point x="1099" y="1364"/>
      <point x="1099" y="1009" type="curve" smooth="yes"/>
      <point x="1099" y="13" type="line" smooth="yes"/>
      <point x="1099" y="-300"/>
      <point x="999" y="-458"/>
      <point x="682" y="-458" type="curve" smooth="yes"/>
      <point x="579" y="-458"/>
      <point x="345" y="-430"/>
      <point x="345" y="-430" type="curve"/>
      <point x="334" y="-268" type="line"/>
      <point x="334" y="-268"/>
      <point x="591.789" y="-299"/>
      <point x="706" y="-299" type="curve" smooth="yes"/>
      <point x="842.169" y="-299"/>
      <point x="912" y="-209"/>
      <point x="912" y="-39" type="curve" smooth="yes"/>
      <point x="912" y="1003" type="line" smooth="yes"/>
      <point x="912" y="1240"/>
      <point x="862.953" y="1363"/>
      <point x="660" y="1363" type="curve" smooth="yes"/>
      <point x="462.921" y="1363"/>
      <point x="316" y="1250.96"/>
      <point x="316" y="1011.3" type="curve" smooth="yes"/>
      <point x="316" y="2" type="line"/>
      <point x="129" y="2" type="line"/>
      <point x="129" y="1491" type="line"/>
      <point x="303" y="1491" type="line"/>
      <point x="316" y="1341.68" type="line"/>
      <point x="415.741" y="1461.33"/>
      <point x="547.464" y="1517.31"/>
    </contour>
  </outline>
</glyph>
<glyph name="rcommaaccent" format="1">
  <advance width="1229"/>
  <unicode hex="0157"/>
  <outline>
    <contour>
      <point x="759" y="-122" type="line"/>
      <point x="578" y="-624" type="line"/>
      <point x="433" y="-624" type="line"/>
      <point x="551" y="-122" type="line"/>
    </contour>
    <component base="r"/>
  </outline>
</glyph>
<glyph name="Tbar" format="1">
  <advance width="1229"/>
  <unicode hex="0166"/>
  <outline>
    <contour>
      <point x="275" y="561" type="line"/>
      <point x="275" y="701" type="line"/>
      <point x="518" y="701" type="line"/>
      <point x="518" y="1345" type="line"/>
      <point x="94" y="1345" type="line"/>
      <point x="94" y="1491" type="line"/>
      <point x="1129" y="1491" type="line"/>
      <point x="1129" y="1345" type="line"/>
      <point x="705" y="1345" type="line"/>
      <point x="705" y="701" type="line"/>
      <point x="954" y="701" type="line"/>
      <point x="954" y="561" type="line"/>
      <point x="705" y="561" type="line"/>
      <point x="705" y="0" type="line"/>
      <point x="518" y="0" type="line"/>
      <point x="518" y="561" type="line"/>
    </contour>
  </outline>
</glyph>
<glyph name="florin" format="1">
  <advance width="1229"/>
  <unicode hex="0192"/>
  <outline>
    <contour>
      <point x="1238" y="1381" type="line"/>
      <point x="1204" y="1394"/>
      <point x="1168" y="1404"/>
      <point x="1124" y="1404" type="curve" smooth="yes"/>
      <point x="908" y="1404"/>
      <point x="920" y="1207"/>
      <point x="887" y="1024" type="curve"/>
      <point x="1108" y="1024" type="line"/>
      <point x="1098" y="872" type="line"/>
      <point x="862" y="872" type="line"/>
      <point x="721" y="130" type="line"/>
      <point x="675" y="-96"/>
      <point x="607" y="-360"/>
      <point x="356" y="-360" type="curve" smooth="yes"/>
      <point x="304" y="-360"/>
      <point x="257" y="-355"/>
      <point x="215" y="-343" type="curve"/>
      <point x="228" y="-194" type="line"/>
      <point x="257" y="-205"/>
      <point x="287" y="-210"/>
      <point x="317" y="-210" type="curve" smooth="yes"/>
      <point x="448" y="-210"/>
      <point x="478" y="-72"/>
      <point x="508" y="37" type="curve" smooth="yes"/>
      <point x="579" y="296"/>
      <point x="619" y="596"/>
      <point x="672" y="872" type="curve"/>
      <point x="500" y="872" type="line"/>
      <point x="511" y="1024" type="line"/>
      <point x="699" y="1024" type="line"/>
      <point x="737" y="1305"/>
      <point x="769" y="1559"/>
      <point x="1090" y="1559" type="curve" smooth="yes"/>
      <point x="1149" y="1559"/>
      <point x="1199" y="1551"/>
      <point x="1248" y="1539" type="curve"/>
    </contour>
  </outline>
</glyph>
<glyph name="Scommaaccent" format="1">
  <advance width="1229"/>
  <unicode hex="0218"/>
  <outline>
    <contour>
      <point x="760" y="-176" type="line"/>
      <point x="579" y="-678" type="line"/>
      <point x="434" y="-678" type="line"/>
      <point x="552" y="-176" type="line"/>
    </contour>
    <contour>
      <point x="212" y="271" type="line"/>
      <point x="305" y="195"/>
      <point x="437" y="148"/>
      <point x="593" y="148" type="curve" smooth="yes"/>
      <point x="755" y="148"/>
      <point x="843" y="238"/>
      <point x="843" y="404" type="curve" smooth="yes"/>
      <point x="843" y="605"/>
      <point x="640" y="657"/>
      <point x="496" y="718" type="curve" smooth="yes"/>
      <point x="324" y="790"/>
      <point x="150" y="879"/>
      <point x="150" y="1123" type="curve" smooth="yes"/>
      <point x="150" y="1380"/>
      <point x="347" y="1517"/>
      <point x="604" y="1517" type="curve" smooth="yes"/>
      <point x="771" y="1517"/>
      <point x="900" y="1476"/>
      <point x="995" y="1401" type="curve"/>
      <point x="925" y="1249" type="line"/>
      <point x="844" y="1312"/>
      <point x="728" y="1345"/>
      <point x="594" y="1345" type="curve" smooth="yes"/>
      <point x="448" y="1345"/>
      <point x="357" y="1264.01"/>
      <point x="357" y="1119" type="curve" smooth="yes"/>
      <point x="357" y="938"/>
      <point x="578" y="890"/>
      <point x="706" y="833" type="curve" smooth="yes"/>
      <point x="883" y="755"/>
      <point x="1054" y="652"/>
      <point x="1054" y="395" type="curve" smooth="yes"/>
      <point x="1054" y="116"/>
      <point x="866" y="-25"/>
      <point x="589" y="-25" type="curve" smooth="yes"/>
      <point x="408" y="-25"/>
      <point x="258" y="26"/>
      <point x="141" y="104" type="curve"/>
    </contour>
  </outline>
</glyph>
<glyph name="scommaaccent" format="1">
  <advance width="1229"/>
  <unicode hex="0219"/>
  <outline>
    <contour>
      <point x="812" y="-176" type="line"/>
      <point x="631" y="-678" type="line"/>
      <point x="486" y="-678" type="line"/>
      <point x="604" y="-176" type="line"/>
    </contour>
    <contour>
      <point x="621" y="136" type="curve" smooth="yes"/>
      <point x="760" y="136"/>
      <point x="884" y="165"/>
      <point x="884" y="304" type="curve" smooth="yes"/>
      <point x="884" y="447"/>
      <point x="667" y="466"/>
      <point x="550" y="496" type="curve" smooth="yes"/>
      <point x="381" y="539"/>
      <point x="216" y="607"/>
      <point x="216" y="819" type="curve" smooth="yes"/>
      <point x="216" y="1034"/>
      <point x="414" y="1130"/>
      <point x="628" y="1130" type="curve" smooth="yes"/>
      <point x="784" y="1130"/>
      <point x="918" y="1113"/>
      <point x="1031" y="1061" type="curve"/>
      <point x="973" y="914" type="line"/>
      <point x="881" y="951"/>
      <point x="759" y="969"/>
      <point x="637" y="969" type="curve" smooth="yes"/>
      <point x="530" y="969"/>
      <point x="427" y="933"/>
      <point x="427" y="825" type="curve" smooth="yes"/>
      <point x="427" y="678"/>
      <point x="641" y="662"/>
      <point x="761" y="630" type="curve" smooth="yes"/>
      <point x="927" y="586"/>
      <point x="1095" y="528"/>
      <point x="1095" y="319" type="curve" smooth="yes"/>
      <point x="1095" y="77"/>
      <point x="877" y="-25"/>
      <point x="636" y="-25" type="curve" smooth="yes"/>
      <point x="464" y="-25"/>
      <point x="304" y="3"/>
      <point x="203" y="76" type="curve"/>
      <point x="261" y="231" type="line"/>
      <point x="353" y="166"/>
      <point x="475" y="136"/>
    </contour>
  </outline>
</glyph>
<glyph name="breve" format="1">
  <advance width="1229"/>
  <unicode hex="02D8"/>
  <outline>
    <contour>
      <point x="411" y="1579" type="line"/>
      <point x="429" y="1482"/>
      <point x="506" y="1438"/>
      <point x="620" y="1438" type="curve" smooth="yes"/>
      <point x="734" y="1438"/>
      <point x="819" y="1488"/>
      <point x="843" y="1579" type="curve"/>
      <point x="940" y="1579" type="line"/>
      <point x="928" y="1409"/>
      <point x="812" y="1323"/>
      <point x="629" y="1323" type="curve" smooth="yes"/>
      <point x="441" y="1323"/>
      <point x="329" y="1405"/>
      <point x="313" y="1579" type="curve"/>
    </contour>
    <contour>
      <point x="626.5" y="1097" type="move" name="_top"/>
    </contour>
  </outline>
</glyph>
<glyph name="endash" format="1">
  <advance width="1229"/>
  <unicode hex="2013"/>
  <outline>
    <contour>
      <point x="184" y="531" type="line"/>
      <point x="184" y="680" type="line"/>
      <point x="1391" y="680" type="line"/>
      <point x="1391" y="531" type="line"/>
    </contour>
  </outline>
</glyph>
<glyph name="afii00208" format="1">
  <advance width="1229"/>
  <unicode hex="2015"/>
  <outline>
    <contour>
      <point x="323" y="672" type="line"/>
      <point x="323" y="827" type="line"/>
      <point x="3860" y="827" type="line"/>
      <point x="3860" y="672" type="line"/>
    </contour>
  </outline>
</glyph>
<glyph name="quoteleft" format="1">
  <advance width="1229"/>
  <unicode hex="2018"/>
  <outline>
    <contour>
      <point x="446" y="1110" type="line"/>
      <point x="617" y="1588" type="line"/>
      <point x="762" y="1588" type="line"/>
      <point x="647" y="1110" type="line"/>
    </contour>
  </outline>
</glyph>
<glyph name="quotedblbase" format="1">
  <advance width="1229"/>
  <unicode hex="201E"/>
  <outline>
    <contour>
      <point x="958" y="218" type="line"/>
      <point x="787" y="-258" type="line"/>
      <point x="641" y="-258" type="line"/>
      <point x="755" y="218" type="line"/>
    </contour>
    <contour>
      <point x="561" y="218" type="line"/>
      <point x="391" y="-258" type="line"/>
      <point x="244" y="-258" type="line"/>
      <point x="360" y="218" type="line"/>
    </contour>
  </outline>
</glyph>
<glyph name="dagger" format="1">
  <advance width="1229"/>
  <unicode hex="2020"/>
  <outline>
    <contour>
      <point x="240" y="1014" type="line"/>
      <point x="240" y="1158" type="line"/>
      <point x="601" y="1158" type="line"/>
      <point x="601" y="1575" type="line"/>
      <point x="758" y="1575" type="line"/>
      <point x="758" y="1158" type="line"/>
      <point x="1139" y="1158" type="line"/>
      <point x="1139" y="1014" type="line"/>
      <point x="743" y="1014" type="line"/>
      <point x="743" y="123" type="line"/>
      <point x="601" y="123" type="line"/>
      <point x="601" y="1014" type="line"/>
    </contour>
  </outline>
</glyph>
<glyph name="bullet" format="1">
  <advance width="1229"/>
  <unicode hex="2022"/>
  <outline>
    <contour>
      <point x="1126" y="760" type="curve" smooth="yes"/>
      <point x="1126" y="555"/>
      <point x="954" y="418"/>
      <point x="749" y="418" type="curve" smooth="yes"/>
      <point x="525" y="418"/>
      <point x="379" y="587"/>
      <point x="379" y="753" type="curve" smooth="yes"/>
      <point x="379" y="981"/>
      <point x="604" y="1096"/>
      <point x="757" y="1096" type="curve" smooth="yes"/>
      <point x="981" y="1096"/>
      <point x="1126" y="925"/>
    </contour>
  </outline>
</glyph>
<glyph name="ellipsis" format="1">
  <advance width="1229"/>
  <unicode hex="2026"/>
  <outline>
    <contour>
      <point x="675" y="-12" type="line"/>
      <point x="675" y="216" type="line"/>
      <point x="916" y="216" type="line"/>
      <point x="916" y="-12" type="line"/>
    </contour>
    <contour>
      <point x="1274" y="-12" type="line"/>
      <point x="1274" y="216" type="line"/>
      <point x="1514" y="216" type="line"/>
      <point x="1514" y="-12" type="line"/>
    </contour>
    <contour>
      <point x="78" y="-12" type="line"/>
      <point x="78" y="216" type="line"/>
      <point x="319" y="216" type="line"/>
      <point x="319" y="-12" type="line"/>
    </contour>
  </outline>
</glyph>
<glyph name="perthousand" format="1">
  <advance width="1229"/>
  <unicode hex="2030"/>
  <outline>
    <contour>
      <point x="379" y="1449" type="curve" smooth="yes"/>
      <point x="236" y="1449"/>
      <point x="167" y="1331"/>
      <point x="167" y="1189" type="curve" smooth="yes"/>
      <point x="167" y="1040"/>
      <point x="231" y="926"/>
      <point x="382" y="926" type="curve" smooth="yes"/>
      <point x="527" y="926"/>
      <point x="593" y="1044"/>
      <point x="593" y="1187" type="curve" smooth="yes"/>
      <point x="593" y="1337"/>
      <point x="531" y="1449"/>
    </contour>
    <contour>
      <point x="1438" y="355" type="curve" smooth="yes"/>
      <point x="1438" y="505"/>
      <point x="1375" y="616"/>
      <point x="1224" y="616" type="curve" smooth="yes"/>
      <point x="1077" y="616"/>
      <point x="1009" y="501"/>
      <point x="1009" y="356" type="curve"/>
      <point x="1011" y="356" type="line"/>
      <point x="1011" y="205"/>
      <point x="1072" y="93"/>
      <point x="1225" y="93" type="curve" smooth="yes"/>
      <point x="1369" y="93"/>
      <point x="1438" y="212"/>
    </contour>
    <contour>
      <point x="2094" y="93" type="curve" smooth="yes"/>
      <point x="2240" y="93"/>
      <point x="2307" y="210"/>
      <point x="2307" y="355" type="curve"/>
      <point x="2310" y="355" type="line"/>
      <point x="2310" y="505"/>
      <point x="2246" y="616"/>
      <point x="2094" y="616" type="curve" smooth="yes"/>
      <point x="1948" y="616"/>
      <point x="1880" y="501"/>
      <point x="1880" y="356" type="curve" smooth="yes"/>
      <point x="1880" y="204"/>
      <point x="1941" y="93"/>
    </contour>
    <contour>
      <point x="1234" y="1559" type="line"/>
      <point x="1399" y="1559" type="line"/>
      <point x="365" y="-22" type="line"/>
      <point x="195" y="-22" type="line"/>
    </contour>
    <contour>
      <point x="379" y="1571" type="curve" smooth="yes"/>
      <point x="619" y="1571"/>
      <point x="752" y="1424"/>
      <point x="752" y="1186" type="curve" smooth="yes"/>
      <point x="752" y="953"/>
      <point x="610" y="804"/>
      <point x="376" y="804" type="curve" smooth="yes"/>
      <point x="137" y="804"/>
      <point x="4" y="951"/>
      <point x="4" y="1188" type="curve" smooth="yes"/>
      <point x="4" y="1420"/>
      <point x="145" y="1571"/>
    </contour>
    <contour>
      <point x="1225" y="740" type="curve" smooth="yes"/>
      <point x="1465" y="740"/>
      <point x="1595" y="591"/>
      <point x="1595" y="353" type="curve" smooth="yes"/>
      <point x="1595" y="122"/>
      <point x="1453" y="-30"/>
      <point x="1221" y="-30" type="curve" smooth="yes"/>
      <point x="982" y="-30"/>
      <point x="848" y="119"/>
      <point x="848" y="356" type="curve" smooth="yes"/>
      <point x="848" y="588"/>
      <point x="992" y="740"/>
    </contour>
    <contour>
      <point x="2097" y="740" type="curve" smooth="yes"/>
      <point x="2337" y="740"/>
      <point x="2468" y="592"/>
      <point x="2468" y="353" type="curve" smooth="yes"/>
      <point x="2468" y="122"/>
      <point x="2325" y="-30"/>
      <point x="2093" y="-30" type="curve" smooth="yes"/>
      <point x="1854" y="-30"/>
      <point x="1721" y="118"/>
      <point x="1721" y="356" type="curve" smooth="yes"/>
      <point x="1721" y="589"/>
      <point x="1863" y="740"/>
    </contour>
  </outline>
</glyph>
<glyph name="guilsinglleft" format="1">
  <advance width="1229"/>
  <unicode hex="2039"/>
  <outline>
    <contour>
      <point x="881" y="992" type="line"/>
      <point x="589" y="588" type="line"/>
      <point x="871" y="185" type="line"/>
      <point x="698" y="185" type="line"/>
      <point x="401" y="588" type="line"/>
      <point x="704" y="992" type="line"/>
    </contour>
  </outline>
</glyph>
<glyph name="trademark" format="1">
  <advance width="1229"/>
  <unicode hex="2122"/>
  <outline>
    <contour>
      <point x="605" y="1466" type="line"/>
      <point x="366" y="1466" type="line"/>
      <point x="366" y="745" type="line"/>
      <point x="231" y="745" type="line"/>
      <point x="231" y="1466" type="line"/>
      <point x="0" y="1466" type="line"/>
      <point x="0" y="1575" type="line"/>
      <point x="605" y="1575" type="line"/>
    </contour>
    <contour>
      <point x="1062" y="1201" type="line"/>
      <point x="1224" y="1575" type="line"/>
      <point x="1398" y="1575" type="line"/>
      <point x="1398" y="745" type="line"/>
      <point x="1262" y="745" type="line"/>
      <point x="1262" y="1391" type="line"/>
      <point x="1111" y="1016" type="line"/>
      <point x="1022" y="1016" type="line"/>
      <point x="863" y="1390" type="line"/>
      <point x="863" y="745" type="line"/>
      <point x="728" y="745" type="line"/>
      <point x="728" y="1575" type="line"/>
      <point x="914" y="1575" type="line"/>
    </contour>
  </outline>
</glyph>
<glyph name="summation" format="1">
  <advance width="1229"/>
  <unicode hex="2211"/>
  <outline>
    <contour>
      <point x="74" y="-358" type="line"/>
      <point x="74" y="-260" type="line"/>
      <point x="783" y="599" type="line"/>
      <point x="100" y="1442" type="line"/>
      <point x="100" y="1545" type="line"/>
      <point x="1311" y="1545" type="line"/>
      <point x="1311" y="1391" type="line"/>
      <point x="371" y="1391" type="line"/>
      <point x="1005" y="609" type="line"/>
      <point x="336" y="-197" type="line"/>
      <point x="1362" y="-197" type="line"/>
      <point x="1362" y="-358" type="line"/>
    </contour>
  </outline>
</glyph>
<glyph name="minus" format="1">
  <advance width="1229"/>
  <unicode hex="2212"/>
  <outline>
    <contour>
      <point x="1312" y="538" type="line"/>
      <point x="152" y="538" type="line"/>
      <point x="152" y="687" type="line"/>
      <point x="1312" y="687" type="line"/>
    </contour>
  </outline>
</glyph>
<glyph name="radical" format="1">
  <advance width="1229"/>
  <unicode hex="221A"/>
  <outline>
    <contour>
      <point x="668" y="45" type="curve"/>
      <point x="805" y="620"/>
      <point x="974" y="1170"/>
      <point x="1125" y="1732" type="curve"/>
      <point x="1269" y="1732" type="line"/>
      <point x="753" y="-166" type="line"/>
      <point x="603" y="-166" type="line"/>
      <point x="236" y="749" type="line"/>
      <point x="45" y="719" type="line"/>
      <point x="23" y="840" type="line"/>
      <point x="350" y="896" type="line"/>
      <point x="460" y="617"/>
      <point x="577" y="339"/>
    </contour>
  </outline>
</glyph>
<glyph name="infinity" format="1">
  <advance width="1229"/>
  <unicode hex="221E"/>
  <outline>
    <contour>
      <point x="1341" y="1024" type="curve" smooth="yes"/>
      <point x="1591" y="1024"/>
      <point x="1759" y="893"/>
      <point x="1759" y="644" type="curve" smooth="yes"/>
      <point x="1759" y="393"/>
      <point x="1545" y="255"/>
      <point x="1359" y="255" type="curve" smooth="yes"/>
      <point x="1133" y="255"/>
      <point x="1018" y="401"/>
      <point x="916" y="529" type="curve"/>
      <point x="813" y="401"/>
      <point x="661" y="255"/>
      <point x="472" y="255" type="curve" smooth="yes"/>
      <point x="235" y="255"/>
      <point x="70" y="428"/>
      <point x="70" y="663" type="curve" smooth="yes"/>
      <point x="70" y="903"/>
      <point x="306" y="1024"/>
      <point x="468" y="1024" type="curve" smooth="yes"/>
      <point x="685" y="1024"/>
      <point x="821" y="874"/>
      <point x="919" y="750" type="curve"/>
      <point x="1014" y="869"/>
      <point x="1133" y="1024"/>
    </contour>
    <contour>
      <point x="467" y="899" type="curve" smooth="yes"/>
      <point x="316" y="899"/>
      <point x="214" y="791"/>
      <point x="214" y="642" type="curve" smooth="yes"/>
      <point x="214" y="494"/>
      <point x="327" y="385"/>
      <point x="476" y="385" type="curve" smooth="yes"/>
      <point x="647" y="385"/>
      <point x="765" y="537"/>
      <point x="839" y="638" type="curve"/>
      <point x="761" y="750"/>
      <point x="652" y="899"/>
    </contour>
    <contour>
      <point x="1604" y="663" type="curve" smooth="yes"/>
      <point x="1604" y="805"/>
      <point x="1502" y="900"/>
      <point x="1358" y="900" type="curve" smooth="yes"/>
      <point x="1182" y="900"/>
      <point x="1112" y="777"/>
      <point x="1034" y="680" type="curve" smooth="yes"/>
      <point x="1020" y="663"/>
      <point x="1007" y="651"/>
      <point x="993" y="642" type="curve"/>
      <point x="1078" y="531"/>
      <point x="1182" y="385"/>
      <point x="1345" y="385" type="curve" smooth="yes"/>
      <point x="1521" y="385"/>
      <point x="1604" y="489"/>
    </contour>
  </outline>
</glyph>
<glyph name="integral" format="1">
  <advance width="1229"/>
  <unicode hex="222B"/>
  <outline>
    <contour>
      <point x="1019" y="1608" type="line"/>
      <point x="988" y="1619"/>
      <point x="951" y="1624"/>
      <point x="910" y="1624" type="curve" smooth="yes"/>
      <point x="752" y="1624"/>
      <point x="718" y="1545"/>
      <point x="718" y="1389" type="curve" smooth="yes"/>
      <point x="718" y="-25" type="line" smooth="yes"/>
      <point x="718" y="-265"/>
      <point x="631" y="-433"/>
      <point x="388" y="-433" type="curve" smooth="yes"/>
      <point x="334" y="-433"/>
      <point x="284" y="-423"/>
      <point x="239" y="-411" type="curve"/>
      <point x="236" y="-270" type="line"/>
      <point x="269" y="-281"/>
      <point x="304" y="-287"/>
      <point x="345" y="-287" type="curve" smooth="yes"/>
      <point x="501" y="-287"/>
      <point x="535" y="-205"/>
      <point x="535" y="-51" type="curve" smooth="yes"/>
      <point x="535" y="1363" type="line" smooth="yes"/>
      <point x="535" y="1605"/>
      <point x="624" y="1771"/>
      <point x="868" y="1771" type="curve" smooth="yes"/>
      <point x="922" y="1771"/>
      <point x="969" y="1758"/>
      <point x="1016" y="1748" type="curve"/>
    </contour>
  </outline>
</glyph>
<glyph name="approxequal" format="1">
  <advance width="1229"/>
  <unicode hex="2248"/>
  <outline>
    <contour>
      <point x="481" y="867" type="curve" smooth="yes"/>
      <point x="362" y="867"/>
      <point x="312" y="780"/>
      <point x="284" y="688" type="curve"/>
      <point x="247" y="695"/>
      <point x="179" y="717"/>
      <point x="154" y="717" type="curve" smooth="yes"/>
      <point x="152" y="717" type="line"/>
      <point x="189" y="878"/>
      <point x="290" y="996"/>
      <point x="487" y="996" type="curve" smooth="yes"/>
      <point x="663" y="996"/>
      <point x="773" y="879"/>
      <point x="909" y="830" type="curve" smooth="yes"/>
      <point x="934" y="821"/>
      <point x="958" y="817"/>
      <point x="982" y="817" type="curve" smooth="yes"/>
      <point x="1101" y="817"/>
      <point x="1145" y="908"/>
      <point x="1176" y="997" type="curve"/>
      <point x="1299" y="966" type="line"/>
      <point x="1262" y="806"/>
      <point x="1174" y="688"/>
      <point x="978" y="688" type="curve" smooth="yes"/>
      <point x="793" y="688"/>
      <point x="693" y="803"/>
      <point x="555" y="854" type="curve" smooth="yes"/>
      <point x="531" y="863"/>
      <point x="505" y="867"/>
    </contour>
    <contour>
      <point x="998" y="413" type="curve" smooth="yes"/>
      <point x="1103" y="413"/>
      <point x="1150" y="515"/>
      <point x="1180" y="592" type="curve"/>
      <point x="1303" y="563" type="line"/>
      <point x="1266" y="404"/>
      <point x="1178" y="284"/>
      <point x="983" y="284" type="curve" smooth="yes"/>
      <point x="774" y="284"/>
      <point x="632" y="463"/>
      <point x="484" y="463" type="curve" smooth="yes"/>
      <point x="366" y="463"/>
      <point x="312" y="375"/>
      <point x="284" y="283" type="curve"/>
      <point x="158" y="314" type="line"/>
      <point x="198" y="475"/>
      <point x="293" y="592"/>
      <point x="493" y="592" type="curve" smooth="yes"/>
      <point x="681" y="592"/>
      <point x="784" y="478"/>
      <point x="924" y="427" type="curve" smooth="yes"/>
      <point x="949" y="418"/>
      <point x="974" y="413"/>
    </contour>
  </outline>
</glyph>
<glyph name="lessequal" format="1">
  <advance width="1229"/>
  <unicode hex="2264"/>
  <outline>
    <contour>
      <point x="152" y="9" type="line"/>
      <point x="152" y="143" type="line"/>
      <point x="1275" y="143" type="line"/>
      <point x="1275" y="9" type="line"/>
    </contour>
    <contour>
      <point x="191" y="723" type="line"/>
      <point x="191" y="811" type="line"/>
      <point x="1243" y="1323" type="line"/>
      <point x="1243" y="1172" type="line"/>
      <point x="386" y="771" type="line"/>
      <point x="1243" y="387" type="line"/>
      <point x="1243" y="235" type="line"/>
    </contour>
  </outline>
</glyph>
<glyph name="greaterequal" format="1">
  <advance width="1229"/>
  <unicode hex="2265"/>
  <outline>
    <contour>
      <point x="152" y="9" type="line"/>
      <point x="152" y="143" type="line"/>
      <point x="1271" y="143" type="line"/>
      <point x="1249" y="9" type="line"/>
    </contour>
    <contour>
      <point x="1249" y="812" type="line"/>
      <point x="1249" y="726" type="line"/>
      <point x="187" y="237" type="line"/>
      <point x="187" y="389" type="line"/>
      <point x="1053" y="767" type="line"/>
      <point x="152" y="1174" type="line"/>
      <point x="191" y="1325" type="line"/>
    </contour>
  </outline>
</glyph>
<glyph name="lozenge" format="1">
  <advance width="1229"/>
  <unicode hex="25CA"/>
  <outline>
    <contour>
      <point x="694" y="1437" type="curve"/>
      <point x="564" y="1210"/>
      <point x="424" y="997"/>
      <point x="289" y="774" type="curve"/>
      <point x="682" y="106" type="line"/>
      <point x="810" y="334"/>
      <point x="949" y="549"/>
      <point x="1084" y="772" type="curve"/>
      <point x="954" y="994"/>
      <point x="819" y="1211"/>
    </contour>
    <contour>
      <point x="740" y="-48" type="line"/>
      <point x="624" y="-48" type="line"/>
      <point x="125" y="772" type="line"/>
      <point x="631" y="1595" type="line"/>
      <point x="750" y="1595" type="line"/>
      <point x="1251" y="773" type="line"/>
    </contour>
  </outline>
</glyph>
